<svg width="20" height="20" viewBox="0 0 20 20" fill="none" xmlns="http://www.w3.org/2000/svg">
<path d="M18.0937 6.90636C17.2732 6.08591 16.1604 5.62499 15.0001 5.62499C13.8398 5.62499 12.727 6.08591 11.9065 6.90636L10.0093 8.80355L8.1119 6.90616C7.50005 6.29431 6.7205 5.87763 5.87183 5.70882C5.02316 5.54001 4.1435 5.62665 3.34407 5.95779C2.54464 6.28892 1.86136 6.84967 1.38063 7.56914C0.8999 8.2886 0.643311 9.13446 0.643311 9.99976C0.643311 10.8651 0.8999 11.7109 1.38063 12.4304C1.86136 13.1498 2.54464 13.7106 3.34407 14.0417C4.1435 14.3729 5.02316 14.4595 5.87183 14.2907C6.7205 14.1219 7.50005 13.7052 8.1119 13.0934L10.0091 11.1961L11.9064 13.0934C12.3121 13.5019 12.7945 13.8263 13.3259 14.048C13.8573 14.2697 14.4272 14.3844 15.003 14.3854C15.5788 14.3864 16.1491 14.2737 16.6812 14.0538C17.2134 13.834 17.6969 13.5112 18.1041 13.1041C18.5112 12.6969 18.834 12.2134 19.0539 11.6813C19.2738 11.1492 19.3865 10.5788 19.3855 10.0031C19.3846 9.42727 19.27 8.85733 19.0483 8.32593C18.8266 7.79454 18.5022 7.31212 18.0937 6.90636ZM7.22803 12.2096C6.79099 12.6467 6.23417 12.9443 5.62798 13.0649C5.02179 13.1854 4.39346 13.1236 3.82245 12.887C3.25143 12.6505 2.76337 12.25 2.42 11.7361C2.07662 11.2222 1.89334 10.618 1.89334 9.99991C1.89334 9.38185 2.07662 8.77766 2.42 8.26376C2.76337 7.74986 3.25143 7.34932 3.82245 7.1128C4.39346 6.87627 5.02179 6.81438 5.62798 6.93496C6.23417 7.05553 6.79099 7.35315 7.22803 7.79019L9.38428 9.94644V10.0537L7.22803 12.2096ZM17.2096 12.2096C16.6235 12.7957 15.8287 13.1249 14.9999 13.1249C14.1711 13.1249 13.3763 12.7957 12.7902 12.2096L10.634 10.0534V9.9462L12.7902 7.78995C13.0804 7.49977 13.4249 7.26959 13.8041 7.11256C14.1833 6.95552 14.5896 6.8747 15 6.87472C15.4104 6.87473 15.8168 6.95558 16.1959 7.11264C16.5751 7.2697 16.9196 7.49991 17.2098 7.79011C17.4999 8.08031 17.7301 8.42482 17.8871 8.80398C18.0442 9.18314 18.125 9.58952 18.125 9.99991C18.125 10.4103 18.0441 10.8167 17.8871 11.1958C17.73 11.575 17.4998 11.9195 17.2096 12.2096Z" fill="#3A3A55"/>
</svg>
