<svg width="20" height="20" viewBox="0 0 20 20" fill="none" xmlns="http://www.w3.org/2000/svg">
<g clip-path="url(#clip0_1_3745)">
<path d="M13.5245 11.1232L10.0014 7.6001L6.47827 11.1232L7.36214 12.0071L9.3764 9.99283V19.3753H10.6264V9.99283L12.6407 12.0071L13.5245 11.1232Z" fill="#3A3A55"/>
<path d="M15.625 6.30676V6.25C15.625 3.14844 13.1016 0.625 10 0.625C6.89844 0.625 4.375 3.14844 4.375 6.25V6.3473C3.44926 6.522 2.59586 6.96654 1.92211 7.625C1.5121 8.02295 1.18605 8.49908 0.963258 9.02523C0.740463 9.55138 0.625443 10.1169 0.625 10.6882C0.625 11.9038 1.12453 13.0618 2.03164 13.9488C2.91797 14.8154 4.11477 15.3125 5.31523 15.3125H7.8125V14.0625H5.31523C3.48258 14.0625 1.875 12.4857 1.875 10.6882C1.875 9.03715 3.26719 7.64465 5.04441 7.51813L5.625 7.47676V6.25C5.625 5.08968 6.08594 3.97688 6.90641 3.15641C7.72688 2.33594 8.83968 1.875 10 1.875C11.1603 1.875 12.2731 2.33594 13.0936 3.15641C13.9141 3.97688 14.375 5.08968 14.375 6.25V7.50156L14.9922 7.50938C16.8075 7.53234 18.125 8.86926 18.125 10.6882C18.125 12.5804 16.7323 14.0625 14.9543 14.0625H12.1875V15.3125H14.9543C15.5498 15.3145 16.1392 15.1923 16.6849 14.9539C17.2306 14.7154 17.7207 14.3659 18.1238 13.9276C18.9307 13.0601 19.375 11.9097 19.375 10.6882C19.375 8.40555 17.8014 6.61688 15.625 6.30676Z" fill="#3A3A55"/>
</g>
<defs>
<clipPath id="clip0_1_3745">
<rect width="20" height="20" fill="white"/>
</clipPath>
</defs>
</svg>
