<svg width="30" height="30" viewBox="0 0 30 30" fill="none" xmlns="http://www.w3.org/2000/svg">
<rect width="30" height="30" fill="#F6F6F6"/>
<path d="M24.1561 11.8353C24.1561 11.8353 23.4774 20.254 23.0836 23.8003C22.8961 25.494 21.8499 26.4865 20.1361 26.5178C16.8749 26.5765 13.6099 26.5803 10.3499 26.5115C8.70111 26.4778 7.67236 25.4728 7.48861 23.809C7.09236 20.2315 6.41736 11.8353 6.41736 11.8353" stroke="#3A3A55" stroke-width="1.5" stroke-linecap="round" stroke-linejoin="round"/>
<path d="M25.8852 7.79962H4.68774" stroke="#3A3A55" stroke-width="1.5" stroke-linecap="round" stroke-linejoin="round"/>
<path d="M21.8007 7.79964C20.8195 7.79964 19.9745 7.10588 19.782 6.14463L19.4782 4.62464C19.2907 3.92339 18.6557 3.43839 17.932 3.43839H12.6407C11.917 3.43839 11.282 3.92339 11.0945 4.62464L10.7907 6.14463C10.5982 7.10588 9.75322 7.79964 8.77197 7.79964" stroke="#3A3A55" stroke-width="1.5" stroke-linecap="round" stroke-linejoin="round"/>
</svg>
