<svg width="37" height="7" viewBox="0 0 37 7" fill="none" xmlns="http://www.w3.org/2000/svg">
<path d="M5.77719 1.17188C6.40219 1.79687 6.71469 2.53125 6.71469 3.375C6.71469 4.20312 6.40219 4.92969 5.77719 5.55469C5.15219 6.16406 4.41781 6.46875 3.57406 6.46875C2.74594 6.46875 2.01937 6.16406 1.39437 5.55469C0.769375 4.92969 0.456875 4.20312 0.456875 3.375C0.456875 2.53125 0.769375 1.79687 1.39437 1.17188C2.01937 0.546875 2.74594 0.234375 3.57406 0.234375C4.41781 0.234375 5.15219 0.546875 5.77719 1.17188ZM20.6797 1.17188C21.3047 1.79687 21.6172 2.53125 21.6172 3.375C21.6172 4.20312 21.3047 4.92969 20.6797 5.55469C20.0547 6.16406 19.3203 6.46875 18.4766 6.46875C17.6484 6.46875 16.9219 6.16406 16.2969 5.55469C15.6719 4.92969 15.3594 4.20312 15.3594 3.375C15.3594 2.53125 15.6719 1.79687 16.2969 1.17188C16.9219 0.546875 17.6484 0.234375 18.4766 0.234375C19.3203 0.234375 20.0547 0.546875 20.6797 1.17188ZM35.5822 1.17188C36.2072 1.79687 36.5197 2.53125 36.5197 3.375C36.5197 4.20312 36.2072 4.92969 35.5822 5.55469C34.9572 6.16406 34.2228 6.46875 33.3791 6.46875C32.5509 6.46875 31.8244 6.16406 31.1994 5.55469C30.5744 4.92969 30.2619 4.20312 30.2619 3.375C30.2619 2.53125 30.5744 1.79687 31.1994 1.17188C31.8244 0.546875 32.5509 0.234375 33.3791 0.234375C34.2228 0.234375 34.9572 0.546875 35.5822 1.17188Z" fill="#F6F6F6"/>
</svg>
