<svg width="26" height="26" viewBox="0 0 26 26" fill="none" xmlns="http://www.w3.org/2000/svg">
<path d="M19.4999 3.25C19.7652 3.25004 20.0213 3.34745 20.2196 3.52378C20.4179 3.7001 20.5446 3.94306 20.5756 4.20658L20.5832 4.33333V21.6667C20.5829 21.9428 20.4771 22.2084 20.2876 22.4092C20.098 22.6099 19.839 22.7308 19.5633 22.7469C19.2877 22.7631 19.0163 22.6734 18.8045 22.4962C18.5928 22.319 18.4567 22.0676 18.4241 21.7934L18.4165 21.6667V4.33333C18.4165 4.04602 18.5307 3.77047 18.7338 3.5673C18.937 3.36414 19.2125 3.25 19.4999 3.25ZM5.73393 3.56742C5.92048 3.38089 6.16867 3.26884 6.43195 3.25229C6.69522 3.23573 6.9555 3.31581 7.16393 3.4775L7.26577 3.56742L15.9324 12.2341C16.119 12.4206 16.231 12.6688 16.2476 12.9321C16.2641 13.1954 16.184 13.4556 16.0224 13.6641L15.9324 13.7659L7.26577 22.4326C7.07081 22.6269 6.80921 22.7397 6.5341 22.7481C6.25899 22.7565 5.99099 22.6599 5.78455 22.4778C5.5781 22.2958 5.44869 22.042 5.42258 21.768C5.39648 21.494 5.47565 21.2203 5.64402 21.0026L5.73393 20.9008L13.6347 13L5.73393 5.09925C5.53084 4.8961 5.41675 4.62059 5.41675 4.33333C5.41675 4.04607 5.53084 3.77057 5.73393 3.56742Z" fill="#F6F6F6"/>
</svg>
