<svg width="50" height="50" viewBox="0 0 50 50" fill="none" xmlns="http://www.w3.org/2000/svg">
<path fill-rule="evenodd" clip-rule="evenodd" d="M50 25C50 38.8071 38.8071 50 25 50C11.1929 50 0 38.8071 0 25C0 11.1929 11.1929 0 25 0C38.8071 0 50 11.1929 50 25ZM16 18C16 16.3431 17.3431 15 19 15C20.6569 15 22 16.3431 22 18V32C22 33.6569 20.6569 35 19 35C17.3431 35 16 33.6569 16 32V18ZM31 15C29.3431 15 28 16.3431 28 18V32C28 33.6569 29.3431 35 31 35C32.6569 35 34 33.6569 34 32V18C34 16.3431 32.6569 15 31 15Z" fill="#F6F6F6"/>
</svg>
