<svg width="50" height="50" viewBox="0 0 50 50" fill="none" xmlns="http://www.w3.org/2000/svg">
<path fill-rule="evenodd" clip-rule="evenodd" d="M0 25.0145C0 11.2156 11.221 0 25 0C38.779 0 50 11.2156 50 25.0145C50 38.7844 38.779 50 25 50C11.221 50 0 38.7844 0 25.0145ZM34.1699 27.5448C34.4353 27.2795 34.7732 26.8695 34.8456 26.773C35.2317 26.2665 35.4247 25.6394 35.4247 25.0147C35.4247 24.3128 35.2075 23.6615 34.7973 23.1309C34.7637 23.0973 34.6978 23.0256 34.612 22.9322C34.4515 22.7575 34.2211 22.5068 34.001 22.2867C32.0222 20.1642 26.8581 16.691 24.1554 15.6297C23.7452 15.4633 22.7075 15.0991 22.1525 15.075C21.6216 15.075 21.1149 15.1955 20.6322 15.4367C20.0289 15.7744 19.5463 16.3051 19.2809 16.9322C19.112 17.3663 18.8465 18.6688 18.8465 18.6929C18.5811 20.116 18.4363 22.4314 18.4363 24.9881C18.4363 27.4266 18.5811 29.6432 18.7983 31.0904C18.8042 31.0964 18.825 31.1999 18.8572 31.3607C18.9553 31.8495 19.1595 32.8678 19.3774 33.2853C19.9083 34.2983 20.9459 34.9254 22.056 34.9254H22.1525C22.8764 34.9013 24.3967 34.2742 24.3967 34.2501C26.9546 33.1888 31.9981 29.8844 34.0251 27.6895L34.1699 27.5448Z" fill="#5E77CE"/>
</svg>
