<svg width="24" height="24" viewBox="0 0 24 24" fill="none" xmlns="http://www.w3.org/2000/svg">
<path d="M21.7499 7.00635C21.9239 7.00635 22.0844 7.06635 22.2119 7.16685L22.3124 7.26135L22.3379 7.29135C23.2094 8.37144 23.7641 9.67215 23.9403 11.0487C24.1164 12.4253 23.9072 13.8238 23.3359 15.0886C22.7645 16.3533 21.8534 17.4347 20.704 18.2125C19.5546 18.9902 18.212 19.4338 16.8254 19.4939L16.4999 19.4999H7.49993C7.34833 19.4999 7.19676 19.4954 7.04543 19.4864L9.53093 21.9689C9.65494 22.0931 9.73142 22.257 9.74705 22.4319C9.76267 22.6067 9.71645 22.7816 9.61643 22.9259L9.53093 23.0309C9.40665 23.1549 9.2428 23.2313 9.06792 23.247C8.89305 23.2626 8.71823 23.2164 8.57393 23.1164L8.46893 23.0309L4.71893 19.2809C4.59492 19.1566 4.51844 18.9927 4.50281 18.8178C4.48719 18.643 4.53341 18.4681 4.63343 18.3238L4.71893 18.2188L8.46893 14.4689C8.60121 14.336 8.77847 14.2575 8.96577 14.2488C9.15306 14.2401 9.33681 14.3019 9.4808 14.422C9.6248 14.5421 9.71859 14.7118 9.74369 14.8976C9.7688 15.0834 9.72339 15.2719 9.61643 15.4259L9.53093 15.5309L7.07543 17.9848L7.28543 17.9969L7.49993 17.9998H16.4999C17.633 18 18.7429 17.6792 19.7013 17.0748C20.6597 16.4703 21.4273 15.6069 21.9154 14.5843C22.4034 13.5617 22.5919 12.4219 22.4591 11.2966C22.3263 10.1714 21.8776 9.1067 21.1649 8.22585C21.0769 8.11557 21.0217 7.98268 21.0058 7.84245C20.9899 7.70223 21.0138 7.56035 21.0749 7.43314C21.136 7.30592 21.2318 7.19853 21.3512 7.1233C21.4706 7.04807 21.6088 7.00805 21.7499 7.00785V7.00635ZM14.4689 0.968849C14.5932 0.844836 14.7571 0.768356 14.9319 0.752732C15.1068 0.737109 15.2816 0.783332 15.4259 0.883349L15.5309 0.968849L19.2809 4.71885L19.3664 4.82385C19.4529 4.9491 19.4992 5.09767 19.4992 5.24985C19.4992 5.40203 19.4529 5.5506 19.3664 5.67585L19.2809 5.78085L15.5309 9.53085L15.4259 9.61635C15.3007 9.70279 15.1521 9.74908 14.9999 9.74908C14.8478 9.74908 14.6992 9.70279 14.5739 9.61635L14.4689 9.53085L14.3834 9.42585C14.297 9.3006 14.2507 9.15203 14.2507 8.99985C14.2507 8.84767 14.297 8.6991 14.3834 8.57385L14.4689 8.46885L16.9244 6.01485L16.7144 6.00285L16.4999 5.99985H7.49993C6.3659 5.99978 5.25507 6.3211 4.29618 6.92655C3.3373 7.53201 2.56964 8.39681 2.08217 9.42073C1.59471 10.4446 1.4074 11.5857 1.54195 12.7118C1.67651 13.8378 2.12742 14.9026 2.84243 15.7829C2.96198 15.9422 3.01333 16.1425 2.9852 16.3397C2.95707 16.5369 2.85176 16.7148 2.69243 16.8343C2.61354 16.8935 2.52376 16.9366 2.42822 16.9611C2.33268 16.9856 2.23326 16.9911 2.13562 16.9771C1.93842 16.949 1.76048 16.8437 1.64093 16.6844C0.775474 15.6026 0.226534 14.3023 0.0549837 12.9276C-0.116566 11.553 0.0959785 10.1576 0.669048 8.89639C1.24212 7.63514 2.15332 6.55726 3.3016 5.78227C4.44988 5.00728 5.79038 4.56548 7.17443 4.50585L7.49993 4.49985H16.4999C16.6529 4.49985 16.8044 4.50435 16.9544 4.51335L14.4689 2.03085L14.3834 1.92585C14.2834 1.78155 14.2372 1.60674 14.2528 1.43186C14.2684 1.25698 14.3449 1.09313 14.4689 0.968849Z" fill="#F6F6F6"/>
</svg>
