<svg width="19" height="4" viewBox="0 0 19 4" fill="none" xmlns="http://www.w3.org/2000/svg">
<path d="M2.85547 0.585938C3.16797 0.898438 3.32422 1.26562 3.32422 1.6875C3.32422 2.10156 3.16797 2.46484 2.85547 2.77734C2.54297 3.08203 2.17578 3.23438 1.75391 3.23438C1.33984 3.23438 0.976562 3.08203 0.664062 2.77734C0.351562 2.46484 0.195312 2.10156 0.195312 1.6875C0.195312 1.26562 0.351562 0.898438 0.664062 0.585938C0.976562 0.273438 1.33984 0.117188 1.75391 0.117188C2.17578 0.117188 2.54297 0.273438 2.85547 0.585938ZM10.3067 0.585938C10.6192 0.898438 10.7755 1.26562 10.7755 1.6875C10.7755 2.10156 10.6192 2.46484 10.3067 2.77734C9.99422 3.08203 9.62703 3.23438 9.20516 3.23438C8.79109 3.23438 8.42781 3.08203 8.11531 2.77734C7.80281 2.46484 7.64656 2.10156 7.64656 1.6875C7.64656 1.26562 7.80281 0.898438 8.11531 0.585938C8.42781 0.273438 8.79109 0.117188 9.20516 0.117188C9.62703 0.117188 9.99422 0.273438 10.3067 0.585938ZM17.758 0.585938C18.0705 0.898438 18.2267 1.26562 18.2267 1.6875C18.2267 2.10156 18.0705 2.46484 17.758 2.77734C17.4455 3.08203 17.0783 3.23438 16.6564 3.23438C16.2423 3.23438 15.8791 3.08203 15.5666 2.77734C15.2541 2.46484 15.0978 2.10156 15.0978 1.6875C15.0978 1.26562 15.2541 0.898438 15.5666 0.585938C15.8791 0.273438 16.2423 0.117188 16.6564 0.117188C17.0783 0.117188 17.4455 0.273438 17.758 0.585938Z" fill="#3A3A55"/>
</svg>
