<svg width="31" height="30" viewBox="0 0 31 30" fill="none" xmlns="http://www.w3.org/2000/svg">
<g id="Iconly/Light-Outline/Swap">
<g id="Swap">
<path id="Stroke 1" d="M21.5496 7.24548C22.0242 7.24548 22.4164 7.59818 22.4785 8.05577L22.4871 8.18298V25.2052C22.4871 25.723 22.0673 26.1427 21.5496 26.1427C21.0749 26.1427 20.6827 25.79 20.6206 25.3324L20.6121 25.2052V8.18298C20.6121 7.66522 21.0318 7.24548 21.5496 7.24548Z" fill="#5F5F75"/>
<path id="Stroke 3" d="M25.9821 19.4238C26.3474 19.0569 26.941 19.0555 27.308 19.4208C27.6416 19.7528 27.673 20.2736 27.4016 20.6412L27.311 20.7466L22.2138 25.8674C21.8807 26.2021 21.3579 26.2325 20.9902 25.9587L20.8849 25.8674L15.7877 20.7466C15.4224 20.3796 15.4238 19.786 15.7908 19.4208C16.1244 19.0887 16.6453 19.0596 17.0117 19.3328L17.1166 19.4238L21.5488 23.8763L25.9821 19.4238Z" fill="#5F5F75"/>
<path id="Stroke 5" d="M9.13916 3.85364C9.61378 3.85364 10.006 4.20633 10.0681 4.66392L10.0767 4.79114V21.8134C10.0767 22.3311 9.65693 22.7509 9.13916 22.7509C8.66454 22.7509 8.2723 22.3982 8.21022 21.9406L8.20166 21.8134V4.79114C8.20166 4.27337 8.62139 3.85364 9.13916 3.85364Z" fill="#5F5F75"/>
<path id="Stroke 7" d="M8.47477 4.12903C8.80792 3.79433 9.33073 3.76391 9.69837 4.03775L9.80366 4.12903L14.9009 9.24986C15.2661 9.61682 15.2648 10.2104 14.8978 10.5757C14.5642 10.9077 14.0433 10.9368 13.6769 10.6636L13.572 10.5726L9.13894 6.11874L4.70643 10.5726C4.37437 10.9062 3.85361 10.9377 3.48597 10.6662L3.38061 10.5757C3.04701 10.2436 3.01555 9.72286 3.28702 9.35522L3.37755 9.24986L8.47477 4.12903Z" fill="#5F5F75"/>
</g>
</g>
</svg>
